<svg version="1.0" xmlns="http://www.w3.org/2000/svg" width="1208" height="1280" viewBox="0 0 1208 1280" preserveAspectRatio="xMidYMid meet">
<metadata>
Created by potrace 1.15, written by Peter Selinger 2001-2017
</metadata>
<g transform="translate(0,1280) scale(0.1,-0.1)" fill="#000000" stroke="none">
<path d="M8336 12785 c-159 -30 -366 -115 -506 -206 -80 -52 -609 -315 -779
-387 -200 -85 -276 -105 -411 -106 -135 -1 -156 7 -237 91 -120 124 -238 123
-384 -3 -83 -71 -176 -180 -256 -300 l-41 -60 -159 -53 c-885 -291 -1602
-1008 -1996 -1996 -204 -512 -326 -1171 -327 -1767 l0 -96 -142 -78 c-952
-515 -1831 -1307 -2545 -2294 -261 -361 -535 -829 -550 -938 -7 -52 19 -106
58 -122 45 -19 139 -5 243 36 170 67 403 195 1176 644 802 467 1459 819 2077
1114 111 53 205 96 210 96 13 0 51 -172 58 -265 8 -91 28 -205 50 -282 18 -60
35 -67 79 -32 33 26 35 23 39 -121 3 -112 30 -340 45 -379 6 -17 19 -6 87 74
44 51 81 92 83 90 7 -7 -222 -515 -232 -515 -6 0 -177 65 -381 144 l-370 143
-35 -28 c-71 -57 -277 -266 -326 -333 -154 -207 -209 -415 -224 -861 -11 -334
-30 -447 -130 -795 -73 -251 -179 -545 -349 -969 -50 -124 -89 -226 -87 -228
2 -3 41 14 86 37 328 165 659 272 995 321 114 17 451 17 570 1 602 -85 1132
-340 2035 -981 317 -225 1167 -866 1244 -939 184 -172 453 -295 783 -357 163
-30 383 -53 787 -80 l99 -7 -7 78 c-48 536 -234 1027 -571 1501 -133 188 -280
358 -502 583 -139 141 -208 220 -222 250 -55 121 7 369 119 475 85 80 148 208
210 422 11 40 23 73 25 73 46 0 823 -116 880 -131 64 -17 108 -21 220 -22 123
0 151 4 228 27 218 65 363 182 444 355 78 167 47 350 -84 492 -29 31 -53 61
-53 66 0 5 42 116 94 247 l94 237 -96 71 c-111 82 -114 72 36 145 163 78 216
150 217 293 0 117 -45 224 -141 330 -20 22 -35 42 -33 44 2 2 87 13 189 25
144 17 197 28 240 47 144 66 202 202 154 365 -24 82 -51 122 -271 406 -112
144 -203 266 -203 270 0 26 -94 138 -251 298 -98 100 -179 187 -179 192 0 6
25 47 56 93 30 46 78 131 106 189 l51 106 -18 120 c-9 66 -19 130 -22 143 l-5
22 259 0 c539 0 1027 -47 1883 -181 307 -48 496 -60 534 -35 66 43 0 124 -166
206 -190 92 -542 197 -918 274 -370 76 -918 151 -1252 172 -68 4 -108 11 -108
18 0 6 7 36 15 66 42 158 50 263 49 645 0 399 -10 528 -74 1060 -50 410 -227
1614 -246 1678 -5 15 3 17 66 17 l72 0 -7 53 c-27 216 -155 425 -376 616 -67
58 -121 113 -131 134 -45 94 -183 204 -305 243 -70 22 -242 27 -337 9z m619
-870 c99 -42 184 -80 188 -85 4 -4 -67 -10 -159 -14 -91 -4 -176 -11 -188 -16
-21 -8 -21 -8 4 -18 14 -5 53 -17 87 -27 34 -10 69 -25 77 -34 8 -9 28 -68 45
-131 85 -319 96 -569 36 -785 -23 -82 -210 -485 -225 -485 -3 0 -21 30 -39 68
-81 165 -231 398 -362 562 -83 105 -251 279 -344 357 l-60 51 2 73 c2 97 34
192 97 286 50 76 54 79 151 128 55 28 133 61 173 74 85 28 312 81 327 76 6 -1
91 -37 190 -80z"/>
</g>
</svg>
